<svg width="709" height="523" viewBox="0 0 709 523" fill="none" xmlns="http://www.w3.org/2000/svg">
<path d="M415.96 469.753C415.96 480.457 481.415 489.135 562.157 489.135C642.9 489.135 708.355 480.457 708.355 469.753C708.355 459.049 642.9 450.372 562.157 450.372C481.415 450.372 415.96 459.049 415.96 469.753Z" fill="#84CECA"/>
<path d="M238.76 187.014C238.74 186.739 238.455 186.651 238.052 186.659C238.647 185.626 239.133 184.521 239.234 183.876C239.335 183.223 238.61 183.231 237.798 183.433C237.767 182.545 237.246 181.755 236.471 181.368C237.177 180.602 237.634 179.771 236.525 179.602C235.17 179.4 233.215 179.981 231.952 180.9C231.84 180.9 231.723 180.9 231.608 180.9C232.047 180.295 232.097 179.658 230.635 179.44C228.359 179.102 225.708 180.465 224.461 181.707C223.798 181.908 223.169 182.142 222.598 182.432C217.24 185.159 216.135 193.111 218.354 195.845C220.322 198.256 225.133 197.998 230.727 197.394C232.814 197.168 234.378 194.893 235.518 192.119C237.125 190.272 238.802 187.651 238.76 187.014" fill="#605E39"/>
<path d="M453.981 472.863C457.251 474.276 469.246 472.815 478.57 471.328C487.896 469.84 495.545 465.957 500.747 463.329C504.753 461.304 506.861 456.764 507.617 454.786C506.475 453.27 503.247 449.721 502.331 447.992C501.089 445.646 493.375 446.201 485.961 447.281C484.895 447.436 482.699 451 482.699 451C482.699 451 457.739 461.138 455.98 462.334C454.507 463.332 451.896 466.408 451.474 469.426C451.776 470.774 452.464 472.208 453.981 472.863" fill="#343434"/>
<path d="M472.789 475.788C502.645 472.236 509.139 462.615 509.673 458.834C509.79 457.995 508.831 456.396 507.617 454.786C506.861 456.764 504.754 461.304 500.747 463.329C495.546 465.958 487.896 469.84 478.571 471.328C469.246 472.816 457.251 474.276 453.981 472.863C452.464 472.208 451.776 470.774 451.474 469.427C450.868 473.739 454.732 477.935 472.789 475.788" fill="#EAE6E4"/>
<path d="M482.699 451C482.699 451 482.401 436.774 483.519 436.994C484.638 437.214 499.891 435.656 500.197 436.994C500.502 438.333 502.332 447.992 502.332 447.992L492.678 452.772C492.678 452.772 488.502 445.45 482.699 451Z" fill="#EAE6E4"/>
<path d="M652.361 467.594C649.414 469.595 637.357 470.407 627.918 470.693C618.479 470.979 610.238 468.598 604.637 466.991C600.321 465.753 597.401 461.688 596.287 459.886C597.126 458.183 599.631 454.093 600.207 452.222C600.987 449.686 608.668 448.785 616.154 448.457C617.229 448.409 620.055 451.498 620.055 451.498C620.055 451.498 646.471 456.781 648.425 457.625C650.057 458.331 653.199 460.862 654.18 463.748C654.135 465.128 653.728 466.666 652.361 467.594" fill="#343434"/>
<path d="M634.435 473.991C604.441 476.096 596.26 467.862 595.028 464.249C594.754 463.446 595.397 461.696 596.288 459.886C597.401 461.688 600.321 465.753 604.638 466.991C610.238 468.598 618.48 470.979 627.919 470.693C637.357 470.407 649.414 469.595 652.361 467.594C653.728 466.667 654.135 465.128 654.181 463.749C655.583 467.871 652.574 472.718 634.435 473.991" fill="#EAE6E4"/>
<path d="M620.056 451.498C620.056 451.498 618.173 448.67 617.068 445.619C615.946 442.52 615.588 439.186 614.085 437.885C613.224 437.138 596.915 438.689 596.866 440.061C596.817 441.433 600.207 452.222 600.207 452.222L610.586 455.109C610.586 455.109 613.315 447.135 620.056 451.498" fill="#EAE6E4"/>
<path d="M451.296 69.1238L383.108 103.369L386.605 59.8005C386.605 59.8005 367.251 69.2851 361.434 74.9147C355.616 80.5523 337.62 99.6427 336.347 110.007C335.074 120.362 339.437 139.638 364.707 146.728C389.976 153.817 436.026 118.265 445.867 101.724C452.694 90.2387 451.296 69.1238 451.296 69.1238" fill="#EAE6E4"/>
<path d="M249.468 433.56H234.522V413.077H249.468V433.56Z" fill="#EAE6E4"/>
<path d="M0 319.293V351.092L51.5764 418.52H198.798L219.198 384.883L173.788 319.293H0Z" fill="#9CABB4"/>
<path d="M33.0752 319.293V351.092L84.6508 418.52H231.873L252.273 384.883L206.864 319.293H33.0752Z" fill="#AABAC3"/>
<path d="M133.61 433.56H118.663V384.645H133.61V433.56Z" fill="#EAE6E4"/>
<path d="M104.342 189.506L155.69 319.292H249.831L296.224 189.506H104.342Z" fill="#9CABB4"/>
<path d="M158.271 189.506L209.62 319.292H303.76L350.152 189.506H158.271" fill="#AABAC4"/>
<path d="M92.2629 358.432C92.2629 345.405 87.5778 334.07 80.6715 328.23V324.03H70.0068C57.7146 324.03 47.75 339.432 47.75 358.432C47.75 377.432 57.7146 392.835 70.0068 392.835H80.6715V388.635C87.5778 382.794 92.2629 371.46 92.2629 358.432Z" fill="#F2EFED"/>
<path d="M102.928 358.432C102.928 377.432 92.9633 392.835 80.6719 392.835C68.3804 392.835 58.415 377.432 58.415 358.432C58.415 339.432 68.3804 324.03 80.6719 324.03C92.9633 324.03 102.928 339.432 102.928 358.432Z" fill="#EAE6E4"/>
<path d="M166.847 358.432C166.847 344.776 161.936 332.893 154.695 326.772V322.369H94.1046C81.2195 322.369 70.7734 338.515 70.7734 358.432C70.7734 378.35 81.2195 394.496 94.1046 394.496H154.695V390.093C161.936 383.971 166.847 372.088 166.847 358.432Z" fill="#F2EFED"/>
<path d="M178.027 358.432C178.027 378.35 167.581 394.496 154.695 394.496C141.81 394.496 131.364 378.35 131.364 358.432C131.364 338.515 141.81 322.369 154.695 322.369C167.581 322.369 178.027 338.515 178.027 358.432Z" fill="#EAE6E4"/>
<path d="M189.618 358.432C189.618 345.405 184.933 334.07 178.026 328.23V324.03H167.361C155.07 324.03 145.105 339.432 145.105 358.432C145.105 377.432 155.07 392.835 167.361 392.835H178.026V388.635C184.933 382.794 189.618 371.46 189.618 358.432Z" fill="#F2EFED"/>
<path d="M200.283 358.432C200.283 377.432 190.318 392.835 178.027 392.835C165.735 392.835 155.771 377.432 155.771 358.432C155.771 339.432 165.735 324.03 178.027 324.03C190.318 324.03 200.283 339.432 200.283 358.432Z" fill="#EAE6E4"/>
<path d="M86.4199 329.164C88.454 328.896 90.4897 328.718 92.5237 328.56C94.5594 328.406 96.5934 328.29 98.6283 328.195C102.698 328.015 106.768 327.93 110.837 327.928C114.907 327.926 118.976 328.011 123.046 328.192C125.081 328.286 127.116 328.402 129.15 328.557C131.185 328.715 133.22 328.895 135.255 329.164C133.22 329.434 131.185 329.613 129.15 329.771C127.116 329.927 125.081 330.042 123.046 330.136C118.976 330.317 114.907 330.403 110.837 330.4C106.768 330.399 102.698 330.314 98.6283 330.133C96.5934 330.038 94.5594 329.923 92.5237 329.769C90.4897 329.611 88.454 329.432 86.4199 329.164" fill="#EAE6E4"/>
<path d="M80.7012 337.51C82.736 337.241 84.7709 337.063 86.8057 336.905C88.8406 336.751 90.8747 336.634 92.9103 336.541C96.98 336.359 101.049 336.275 105.119 336.273C109.188 336.272 113.258 336.355 117.328 336.537C119.363 336.631 121.398 336.747 123.432 336.901C125.466 337.06 127.501 337.239 129.536 337.51C127.501 337.779 125.466 337.958 123.432 338.117C121.398 338.271 119.363 338.387 117.328 338.481C113.258 338.663 109.188 338.747 105.119 338.745C101.049 338.743 96.98 338.66 92.9103 338.478C90.8747 338.384 88.8406 338.268 86.8057 338.114C84.7709 337.956 82.736 337.777 80.7012 337.51" fill="#EAE6E4"/>
<path d="M77.3008 350.645C79.3364 350.377 81.3705 350.198 83.4054 350.04C85.4402 349.887 87.4751 349.771 89.5099 349.677C93.5797 349.494 97.6494 349.41 101.719 349.409C105.788 349.407 109.858 349.491 113.927 349.673C115.962 349.767 117.997 349.883 120.032 350.037C122.067 350.197 124.101 350.375 126.137 350.645C124.101 350.915 122.067 351.094 120.032 351.253C117.997 351.407 115.962 351.523 113.927 351.617C109.858 351.799 105.788 351.882 101.719 351.881C97.6494 351.879 93.5797 351.795 89.5099 351.614C87.4751 351.52 85.4402 351.404 83.4054 351.249C81.3705 351.091 79.3364 350.913 77.3008 350.645" fill="#EAE6E4"/>
<path d="M78.209 361.773C80.2438 361.505 82.2779 361.326 84.3128 361.168C86.3476 361.014 88.3825 360.898 90.4173 360.804C94.487 360.623 98.5568 360.539 102.626 360.537C106.695 360.535 110.765 360.619 114.835 360.801C116.87 360.894 118.905 361.011 120.939 361.165C122.974 361.323 125.008 361.502 127.044 361.773C125.008 362.043 122.974 362.222 120.939 362.38C118.905 362.535 116.87 362.651 114.835 362.745C110.765 362.926 106.695 363.011 102.626 363.008C98.5568 363.007 94.487 362.923 90.4173 362.741C88.3825 362.647 86.3476 362.531 84.3128 362.377C82.2779 362.219 80.2438 362.04 78.209 361.773" fill="#EAE6E4"/>
<path d="M79.291 373.827C81.3251 373.558 83.3607 373.381 85.3948 373.222C87.4304 373.068 89.4645 372.951 91.5002 372.858C95.5699 372.676 99.6388 372.592 103.709 372.59C107.778 372.589 111.848 372.673 115.917 372.854C117.952 372.948 119.987 373.064 122.021 373.218C124.056 373.378 126.091 373.556 128.126 373.827C126.091 374.096 124.056 374.275 122.021 374.434C119.987 374.589 117.952 374.704 115.917 374.798C111.848 374.98 107.778 375.065 103.709 375.063C99.6388 375.061 95.5699 374.977 91.5002 374.796C89.4645 374.701 87.4304 374.585 85.3948 374.431C83.3607 374.273 81.3251 374.094 79.291 373.827" fill="#EAE6E4"/>
<path d="M84.7002 385.881C86.7342 385.613 88.7691 385.435 90.804 385.277C92.8388 385.122 94.8737 385.007 96.9085 384.912C100.978 384.731 105.047 384.646 109.117 384.645C113.187 384.643 117.256 384.728 121.326 384.909C123.361 385.003 125.396 385.118 127.43 385.274C129.465 385.433 131.5 385.612 133.535 385.881C131.5 386.151 129.465 386.329 127.43 386.489C125.396 386.643 123.361 386.759 121.326 386.853C117.256 387.034 113.187 387.119 109.117 387.117C105.047 387.116 100.978 387.03 96.9085 386.85C94.8737 386.755 92.8388 386.639 90.804 386.486C88.7691 386.327 86.7342 386.15 84.7002 385.881Z" fill="#EAE6E4"/>
<path d="M138.352 319.293V351.092L189.928 418.52H337.15L357.549 384.883L312.141 319.293H138.352Z" fill="#9CABB4"/>
<path d="M171.428 319.293V351.092L223.003 418.52H370.225L390.625 384.883L345.216 319.293H171.428Z" fill="#AABAC3"/>
<path d="M267.543 373.827H242.164V317.13H267.543V373.827" fill="#F2EFED"/>
<path d="M284.18 373.827H258.801V317.13H284.18V373.827" fill="#EAE6E4"/>
<path d="M276.407 324.842H273.535C270.225 324.842 267.543 328.989 267.543 334.104C267.543 339.22 270.225 343.368 273.535 343.368H276.407C279.717 343.368 282.399 339.22 282.399 334.104C282.399 328.989 279.717 324.842 276.407 324.842Z" fill="#5EA2CD"/>
<path d="M276.407 347.59H273.535C270.225 347.59 267.543 351.737 267.543 356.853C267.543 361.969 270.225 366.116 273.535 366.116H276.407C279.717 366.116 282.399 361.969 282.399 356.853C282.399 351.737 279.717 347.59 276.407 347.59Z" fill="#343434"/>
<path d="M72.9102 427.954H240.354L258.416 477.541H66.5137L72.9102 427.954" fill="#343434"/>
<path d="M164.647 427.954H332.091L350.153 477.541H158.25L164.647 427.954Z" fill="#343434"/>
<path d="M325.09 364.882C325.09 364.882 325.618 353.241 338.539 350.231C351.462 347.219 423.722 345.329 440.335 350.231C456.95 355.131 448.511 363.345 448.511 363.345C448.511 363.345 461.961 381.767 460.906 398.118C459.85 414.468 457.189 435.789 458.796 437.945C468.026 450.334 474.355 485.936 476.728 499.122C476.728 499.122 483.849 500.178 488.332 505.187C492.816 510.198 474.883 510.198 474.883 510.198C474.883 510.198 441.654 518.637 416.073 520.746C390.492 522.857 355.796 517.846 355.796 517.846C355.796 517.846 353.572 523.384 345.66 522.592C337.749 521.802 337.221 514.681 337.221 514.681C337.221 514.681 320.206 490.063 320.871 434.947C321.412 390.04 328.519 371.218 328.519 371.218C328.519 371.218 323.992 369.386 325.09 364.882" fill="#78C887"/>
<path d="M339.859 355.659C339.859 355.659 330.629 358.545 336.167 364.882C341.704 371.218 428.468 367.526 434.271 366.208C440.072 364.889 446.138 361.197 446.138 358.032C446.138 354.868 420.511 330.87 399.987 328.232C379.463 325.595 355.419 333.77 339.859 355.659" fill="#343434"/>
<path d="M353.045 416.051C353.045 416.051 403.416 420.533 420.82 419.479C438.226 418.424 450.621 413.15 450.621 413.15C450.621 413.15 450.884 439.258 454.049 444.532C457.214 449.806 457.214 449.806 457.214 449.806C457.214 449.806 402.096 458.396 373.351 456.607L353.045 455.345C353.045 455.345 354.627 439.865 354.364 434.947C354.099 430.028 353.045 416.051 353.045 416.051Z" fill="#FFC97D"/>
<path d="M421.866 425.835L424.378 448.591C424.378 448.591 430.994 447.896 430.994 447.595C430.994 447.293 429.339 435.895 429.339 435.895C429.339 435.895 433.639 434.12 433.474 430.844C433.308 427.568 430.6 424.168 421.866 425.835Z" fill="#343434"/>
<path d="M412.123 432.17C412.123 432.17 406.889 431.109 405.403 437.773C403.916 444.436 408.761 448.067 413.173 444.693C417.586 441.318 416.977 432.477 412.123 432.17Z" fill="#343434"/>
<path d="M384.168 424.346C384.168 424.346 382.766 449.296 384.168 449.358C385.568 449.418 388.591 449.966 388.665 449.358C388.739 448.749 389.034 440.29 389.034 440.29L393.015 440.412V449.642H398.176V424.346H393.605L393.015 436.456L388.591 436.273L388.443 424.346H384.168" fill="#343434"/>
<path d="M427.391 330.439C427.334 330.179 427.047 330.132 426.659 330.197C427.085 329.119 427.397 327.988 427.401 327.35C427.405 326.702 426.709 326.815 425.954 327.125C425.796 326.275 425.183 325.591 424.379 325.325C424.95 324.485 425.272 323.619 424.18 323.617C422.846 323.615 421.043 324.453 419.96 325.524C419.849 325.537 419.737 325.553 419.626 325.569C419.963 324.927 419.92 324.303 418.48 324.303C416.238 324.303 413.878 325.995 412.854 327.372C412.244 327.657 411.669 327.973 411.16 328.335C406.387 331.729 408.934 339.368 408.934 339.368C408.934 339.368 415.828 342.974 421.133 341.595C423.112 341.081 424.294 338.658 424.998 335.825C426.282 333.816 427.524 331.048 427.391 330.439Z" fill="#343434"/>
<path d="M400.935 322.939C400.689 322.911 400.56 323.151 400.502 323.512C399.677 322.812 398.772 322.199 398.21 322.003C397.64 321.805 397.531 322.455 397.578 323.213C396.781 323.098 395.993 323.435 395.517 324.064C394.946 323.308 394.28 322.765 393.95 323.728C393.548 324.905 393.748 326.748 394.368 328.026C394.348 328.127 394.328 328.23 394.308 328.333C393.842 327.844 393.279 327.695 392.848 328.965C392.176 330.944 392.961 333.535 393.87 334.852C393.938 335.476 394.045 336.078 394.212 336.635C395.778 341.866 403.283 341.908 403.283 341.908C403.283 341.908 408.535 336.903 408.906 331.807C409.045 329.905 407.261 328.136 404.971 326.666C403.584 324.929 401.512 323.004 400.935 322.939" fill="#343434"/>
<path d="M381.159 326.578C381.014 326.376 380.75 326.441 380.442 326.639C380.412 325.559 380.264 324.475 380.034 323.926C379.801 323.369 379.244 323.722 378.711 324.264C378.265 323.594 377.487 323.233 376.702 323.3C376.882 322.37 376.842 321.51 375.905 321.908C374.761 322.396 373.522 323.776 372.985 325.091C372.897 325.143 372.807 325.197 372.717 325.251C372.771 324.578 372.505 324.059 371.271 324.588C369.35 325.409 367.947 327.725 367.574 329.281C367.156 329.749 366.779 330.231 366.476 330.727C363.63 335.387 368.612 340.999 368.612 340.999C368.612 340.999 375.845 341.562 379.886 338.435C381.394 337.267 381.518 334.758 381.082 332.072C381.447 329.879 381.496 327.051 381.159 326.578" fill="#343434"/>
<path d="M393.876 317.292C393.673 317.148 393.446 317.298 393.22 317.586C392.834 316.577 392.335 315.604 391.935 315.163C391.53 314.714 391.123 315.232 390.8 315.92C390.156 315.436 389.303 315.352 388.583 315.677C388.446 314.739 388.123 313.942 387.37 314.629C386.452 315.468 385.743 317.181 385.672 318.599C385.606 318.678 385.539 318.759 385.472 318.841C385.299 318.186 384.877 317.786 383.888 318.693C382.348 320.106 381.792 322.755 381.957 324.347C381.717 324.927 381.522 325.506 381.4 326.075C380.262 331.416 386.824 335.058 386.824 335.058C386.824 335.058 393.834 333.189 396.607 328.899C397.644 327.298 396.928 324.889 395.627 322.5C395.243 320.31 394.351 317.626 393.876 317.292" fill="#343434"/>
<path d="M352.818 347.438C352.673 347.236 352.409 347.301 352.101 347.499C352.071 346.419 351.922 345.335 351.692 344.786C351.459 344.229 350.902 344.582 350.369 345.123C349.923 344.453 349.146 344.092 348.36 344.159C348.541 343.229 348.499 342.369 347.563 342.769C346.419 343.256 345.181 344.635 344.644 345.95C344.555 346.002 344.465 346.057 344.376 346.111C344.428 345.437 344.164 344.919 342.93 345.448C341.008 346.269 339.605 348.584 339.232 350.141C338.813 350.609 338.437 351.09 338.134 351.587C335.288 356.246 340.271 361.859 340.271 361.859C340.271 361.859 347.504 362.422 351.544 359.295C353.053 358.128 353.176 355.618 352.741 352.931C353.105 350.738 353.154 347.912 352.818 347.438" fill="#343434"/>
<path d="M429.277 335.346C429.005 335.373 428.922 335.66 428.941 336.062C427.894 335.497 426.78 335.042 426.129 334.96C425.47 334.876 425.501 335.601 425.724 336.407C424.839 336.464 424.067 337.007 423.698 337.793C422.911 337.108 422.069 336.675 421.934 337.788C421.769 339.147 422.404 341.088 423.363 342.322C423.363 342.435 423.366 342.551 423.368 342.667C422.754 342.245 422.114 342.213 421.94 343.68C421.667 345.965 423.103 348.577 424.382 349.788C424.598 350.445 424.85 351.068 425.157 351.63C428.035 356.908 436.129 355.243 436.129 355.243C436.129 355.243 440.644 348.655 439.884 343.082C439.6 341.001 437.276 339.503 434.474 338.441C432.584 336.887 429.913 335.285 429.277 335.346Z" fill="#343434"/>
<path d="M391.87 339.661C391.598 339.687 391.515 339.976 391.533 340.378C390.487 339.812 389.372 339.357 388.722 339.275C388.062 339.191 388.094 339.915 388.316 340.722C387.431 340.779 386.66 341.322 386.291 342.108C385.504 341.424 384.662 340.99 384.526 342.103C384.362 343.463 384.997 345.402 385.955 346.637C385.956 346.751 385.959 346.867 385.961 346.981C385.347 346.56 384.708 346.529 384.533 347.995C384.259 350.28 385.696 352.892 386.975 354.103C387.19 354.76 387.443 355.383 387.75 355.945C390.628 361.223 398.61 362.104 401.272 359.808C403.632 357.772 403.237 352.971 402.477 347.398C402.193 345.317 399.868 343.818 397.067 342.756C395.177 341.202 392.506 339.6 391.87 339.661" fill="#78C887"/>
<path d="M349.446 338.631C349.435 338.904 349.708 339.027 350.109 339.064C349.404 340.021 348.799 341.062 348.627 341.695C348.453 342.336 349.174 342.406 350.004 342.297C349.937 343.181 350.367 344.021 351.096 344.495C350.308 345.18 349.762 345.954 350.845 346.242C352.169 346.594 354.178 346.235 355.534 345.457C355.647 345.472 355.761 345.485 355.876 345.499C355.373 346.048 355.252 346.677 356.682 347.055C358.905 347.643 361.691 346.582 363.068 345.485C363.749 345.361 364.402 345.198 365.001 344.972C370.628 342.854 370.103 334.608 370.103 334.608C370.103 334.608 364.206 329.223 358.581 329.201C356.481 329.193 354.673 331.286 353.233 333.914C351.432 335.571 349.474 337.992 349.446 338.631" fill="#343434"/>
<path d="M377.655 342.383C377.637 342.111 377.351 342.02 376.948 342.027C377.544 340.997 378.029 339.895 378.13 339.248C378.232 338.591 377.507 338.602 376.695 338.802C376.663 337.916 376.142 337.128 375.366 336.738C376.073 335.971 376.53 335.142 375.422 334.974C374.068 334.771 372.11 335.351 370.849 336.275C370.735 336.272 370.62 336.272 370.505 336.27C370.943 335.669 370.993 335.03 369.532 334.813C367.256 334.475 364.605 335.838 363.358 337.082C362.695 337.279 362.064 337.514 361.493 337.804C356.136 340.532 355.031 348.486 357.251 351.212C359.219 353.63 364.03 353.37 369.622 352.767C371.71 352.543 373.274 350.262 374.415 347.491C376.021 345.645 377.699 343.022 377.655 342.383" fill="#78C887"/>
<path d="M432.698 360.317C432.878 360.112 432.742 359.845 432.452 359.566C433.602 359.26 434.725 358.826 435.254 358.441C435.792 358.049 435.273 357.543 434.557 357.109C435.162 356.461 435.353 355.537 435.082 354.711C436.124 354.669 437.034 354.408 436.37 353.505C435.557 352.402 433.765 351.425 432.221 351.184C432.142 351.103 432.06 351.02 431.98 350.937C432.716 350.824 433.203 350.408 432.326 349.22C430.957 347.37 428.121 346.454 426.36 346.448C425.752 346.118 425.141 345.838 424.532 345.639C418.818 343.771 412.404 348.602 412.041 352.099C411.718 355.199 415.298 358.423 419.673 361.959C421.305 363.279 424.026 362.776 426.793 361.628C429.235 361.463 432.277 360.799 432.698 360.317" fill="#78C887"/>
<path d="M373.491 441.662C373.263 441.662 373.054 441.51 372.992 441.279C372.918 441.003 373.082 440.721 373.358 440.647C412.665 430.164 458.419 437.362 458.877 437.436C459.159 437.481 459.349 437.746 459.305 438.028C459.259 438.309 458.997 438.5 458.712 438.455C458.257 438.38 412.713 431.22 373.624 441.644C373.58 441.656 373.534 441.662 373.491 441.662" fill="#343434"/>
<path d="M379.059 378.16C368.738 378.16 361.085 377.721 359.196 377.099C358.067 376.725 355.516 376.372 352.564 375.962C346.949 375.183 339.96 374.214 336.053 372.341C335.797 372.218 335.688 371.909 335.812 371.652C335.935 371.395 336.244 371.287 336.5 371.41C340.261 373.213 347.453 374.211 352.706 374.939C355.832 375.373 358.3 375.716 359.52 376.118C362.529 377.111 384.635 377.769 408.218 376.093C430.697 374.496 444.054 365.774 444.186 365.686C444.423 365.528 444.744 365.591 444.901 365.829C445.059 366.067 444.995 366.387 444.758 366.545C444.623 366.634 431.06 375.505 408.291 377.123C397.89 377.862 387.568 378.16 379.059 378.16Z" fill="#343434"/>
<path d="M405.801 382.008C405.517 382.008 405.27 382.008 405.06 382.006H404.952C404.667 382.006 404.436 381.774 404.436 381.489C404.436 381.204 404.667 380.974 404.952 380.974L405.065 380.974C407.901 380.981 432.972 380.972 439.67 376.188C439.901 376.022 440.224 376.076 440.39 376.309C440.556 376.541 440.502 376.863 440.27 377.029C433.758 381.679 411.835 382.008 405.801 382.008Z" fill="#343434"/>
<path d="M367.156 513.249C366.889 513.249 366.663 513.043 366.642 512.771C366.62 512.487 366.833 512.24 367.117 512.218C367.333 512.202 388.814 510.587 408.248 510.319C422.025 510.128 442.31 508.255 466.908 504.9C473.199 504.042 475.354 502.371 476.054 501.121C476.603 500.143 476.274 499.368 476.259 499.335C476.146 499.077 476.259 498.772 476.517 498.655C476.774 498.536 477.077 498.647 477.196 498.903C477.221 498.953 477.762 500.146 476.977 501.586C475.813 503.725 472.472 505.184 467.049 505.923C442.409 509.283 422.081 511.16 408.262 511.351C388.861 511.619 367.41 513.231 367.196 513.247C367.183 513.249 367.169 513.249 367.156 513.249" fill="#343434"/>
<path d="M355.796 518.362C355.709 518.362 355.622 518.34 355.541 518.294C355.294 518.154 355.207 517.839 355.346 517.591C355.37 517.551 357.626 513.476 355.712 509.713C353.817 505.989 345.265 506.438 345.18 506.442C344.903 506.461 344.652 506.242 344.635 505.957C344.618 505.672 344.836 505.428 345.121 505.413C345.499 505.388 354.434 504.925 356.632 509.245C358.802 513.511 356.349 517.915 356.245 518.101C356.149 518.268 355.975 518.362 355.796 518.362" fill="#343434"/>
<path d="M261.892 161.092C261.892 161.092 250.248 161.487 246.221 148.849C242.194 136.203 243.535 72.4471 247.102 55.494C250.67 38.5409 261.793 31.7338 261.793 31.7338C261.793 31.7338 267.865 23.3137 284.247 23.0717C300.63 22.8217 338.457 17.4583 340.614 15.8533C361.919 -0.0351876 384.96 1.19883 398.478 0.037431C403.177 -0.365831 407.629 2.51341 408.94 7.04608C418.981 41.7347 411.938 118.346 411.938 118.346C411.938 118.346 417.636 120.121 417.475 128.073C417.314 136.025 410.257 137.114 410.257 137.114C410.257 137.114 387.067 156.027 332.072 159.737C287.263 162.762 267.937 157.172 267.937 157.172C267.937 157.172 266.47 161.826 261.892 161.092" fill="#9CABB4"/>
<path d="M187.746 130.896C187.689 130.638 187.401 130.589 187.014 130.654C187.441 129.581 187.751 128.444 187.756 127.807C187.761 127.162 187.063 127.274 186.308 127.581C186.152 126.734 185.537 126.049 184.734 125.782C185.306 124.944 185.628 124.081 184.536 124.081C183.201 124.073 181.398 124.911 180.314 125.984C180.204 126 180.092 126.016 179.981 126.032C180.318 125.387 180.276 124.766 178.836 124.766C176.594 124.766 174.234 126.452 173.209 127.831C172.598 128.113 172.024 128.436 171.517 128.791C166.743 132.186 169.288 139.824 169.288 139.824C169.288 139.824 176.184 143.437 181.488 142.058C183.468 141.542 184.649 139.114 185.353 136.283C186.638 134.275 187.879 131.509 187.746 130.896" fill="#78C887"/>
<path d="M202.121 128.097C201.893 128.194 201.901 128.468 202.029 128.815C200.967 128.613 199.876 128.533 199.292 128.637C198.698 128.75 198.925 129.371 199.343 130C198.594 130.299 198.076 130.984 197.976 131.767C197.104 131.396 196.256 131.25 196.449 132.251C196.683 133.468 197.771 134.977 198.943 135.775C198.975 135.872 199.01 135.969 199.044 136.074C198.397 135.88 197.833 136.025 198.09 137.348C198.488 139.396 200.455 141.259 201.898 141.945C202.267 142.453 202.659 142.929 203.08 143.324C207.036 147.091 213.573 143.405 213.573 143.405C213.573 143.405 215.647 136.453 213.443 131.847C212.619 130.121 210.193 129.476 207.475 129.331C205.408 128.516 202.654 127.871 202.121 128.097Z" fill="#78C887"/>
<path d="M244.202 58.9298C243.953 58.9217 243.844 59.1717 243.812 59.5347C242.938 58.8975 241.989 58.3571 241.415 58.2039C240.831 58.0507 240.771 58.704 240.875 59.454C240.072 59.4056 239.311 59.8008 238.884 60.4622C238.258 59.7524 237.552 59.2604 237.296 60.2444C236.983 61.4461 237.321 63.2689 238.036 64.4948C238.023 64.5996 238.012 64.7044 237.999 64.8093C237.498 64.3576 236.925 64.2528 236.591 65.5513C236.07 67.5757 237.048 70.1001 238.054 71.3421C238.168 71.9632 238.321 72.5519 238.529 73.0923C240.484 78.1895 247.971 77.6733 247.971 77.6733C247.971 77.6733 252.83 72.2858 252.818 67.1724C252.813 65.269 250.902 63.6399 248.508 62.3414C246.993 60.7202 244.782 58.954 244.202 58.9298" fill="#78C887"/>
<path d="M441.75 81.3027C441.75 81.3027 432.946 97.038 431.32 104.498C430.784 106.95 429.846 113.007 428.829 120.032C436.732 113.322 442.921 106.668 445.867 101.724C445.933 101.611 445.998 101.49 446.062 101.377C443.637 90.0535 441.75 81.3027 441.75 81.3027" fill="#343434"/>
<path d="M211.285 157.406C211.23 157.648 211.454 157.801 211.807 157.906C211.019 158.648 210.307 159.479 210.051 160.011C209.79 160.56 210.423 160.737 211.182 160.778C210.977 161.552 211.224 162.374 211.796 162.915C210.981 163.399 210.366 164.004 211.286 164.439C212.412 164.971 214.265 164.98 215.605 164.504C215.703 164.536 215.803 164.568 215.903 164.6C215.364 165.004 215.153 165.552 216.368 166.117C218.259 167.012 220.92 166.52 222.331 165.762C222.959 165.77 223.569 165.73 224.142 165.625C229.516 164.657 230.399 157.205 230.399 157.205C230.399 157.205 226.014 151.422 220.991 150.478C219.117 150.131 217.159 151.704 215.441 153.817C213.56 155.003 211.414 156.842 211.285 157.406" fill="#343434"/>
<path d="M189.036 165.939C188.892 165.737 188.627 165.802 188.319 166.004C188.289 164.923 188.141 163.834 187.911 163.286C187.677 162.729 187.121 163.084 186.588 163.624C186.142 162.955 185.364 162.592 184.579 162.665C184.759 161.729 184.719 160.874 183.782 161.269C182.637 161.761 181.399 163.14 180.862 164.455C180.773 164.503 180.684 164.56 180.594 164.616C180.648 163.939 180.382 163.423 179.148 163.955C177.227 164.77 175.824 167.084 175.45 168.641C175.033 169.109 174.656 169.593 174.353 170.093C171.507 174.746 176.49 180.36 176.49 180.36C176.49 180.36 183.722 180.924 187.763 177.795C189.271 176.634 189.396 174.117 188.959 171.431C189.324 169.238 189.373 166.415 189.036 165.939Z" fill="#78C887"/>
<path d="M209.064 84.1335C209.052 84.4077 209.326 84.5287 209.727 84.5609C209.021 85.5207 208.416 86.5611 208.245 87.1983C208.07 87.8354 208.792 87.908 209.622 87.7951C209.556 88.6822 209.985 89.521 210.712 89.9969C209.926 90.6824 209.38 91.4567 210.463 91.739C211.786 92.0939 213.795 91.739 215.151 90.9567C215.264 90.9728 215.379 90.9889 215.493 90.997C214.991 91.5454 214.87 92.1745 216.299 92.5536C218.523 93.1423 221.309 92.0858 222.686 90.9808C223.367 90.8599 224.019 90.6986 224.618 90.4727C230.246 88.3516 229.72 80.1089 229.72 80.1089C229.72 80.1089 223.823 74.7213 218.198 74.7052C216.098 74.6971 214.292 76.7861 212.851 79.4153C211.049 81.0687 209.091 83.4963 209.064 84.1335" fill="#78C887"/>
<path d="M203.703 105.434C203.883 105.224 203.746 104.958 203.457 104.676C204.606 104.369 205.73 103.942 206.26 103.555C206.797 103.159 206.278 102.659 205.561 102.224C206.166 101.571 206.357 100.651 206.086 99.8204C207.129 99.7801 208.039 99.5219 207.374 98.6186C206.562 97.5137 204.77 96.5378 203.226 96.2959C203.147 96.2152 203.066 96.1345 202.985 96.0458C203.72 95.9329 204.209 95.5216 203.33 94.3279C201.963 92.481 199.126 91.5696 197.364 91.5615C196.757 91.2309 196.146 90.9486 195.537 90.747C189.823 88.8839 183.41 93.7149 183.046 97.2152C182.723 100.312 186.304 103.538 190.678 107.071C192.311 108.394 195.031 107.886 197.798 106.74C200.24 106.579 203.281 105.91 203.703 105.434" fill="#605E39"/>
<path d="M503.004 207.967C532.861 204.669 555.726 204.144 555.726 204.144C565.997 241.271 577.378 286.341 588.244 327.755C589.03 330.752 594.459 338.085 595.24 341.039C598.536 353.519 597.128 361.224 600.259 372.532C608.871 403.632 616.684 429.047 622.732 441.88C622.732 441.88 617.667 444.085 606.979 444.085C597.851 444.085 591.642 441.88 591.642 441.88L501.105 270.95L504.045 343.368L501.146 362.745L506.331 399.667L508.046 441.88C508.046 441.88 501.138 445.451 487.503 444.451C478.257 443.774 474.323 441.588 474.323 441.588C474.323 441.588 457.608 347.354 446.963 253.75C436.209 162.891 496.345 209.016 503.004 207.967" fill="#9CABB4"/>
<path d="M435.616 103.998C436.695 94.1104 439.639 84.4886 444.526 75.8265C452.398 61.8736 467.085 46.8562 491.503 58.3249C499.293 61.9785 507.095 70.4873 517.862 99.135C534.241 142.72 543.146 176.19 557.954 203.338C557.954 203.338 549.249 205.346 529.889 208.621C508.564 212.226 465.056 227.515 442.423 219.062C439.081 186.99 431.578 141.002 435.616 103.998" fill="#EAE6E4"/>
<path d="M479.335 24.1683C479.335 24.1683 483.502 37.613 475.478 41.2746C467.455 44.9362 466.609 25.7571 467.778 23.8053C468.946 21.8535 477.733 22.5068 479.335 24.1683" fill="#343434"/>
<path d="M473.434 41.678C473.434 41.678 475.462 49.84 478.545 54.3485C480.349 56.9939 471.836 64.3091 466.94 65.2608C462.044 66.2045 464.714 56.7681 464.877 54.3969C465.039 52.0258 464.23 45.3316 464.412 44.2912C464.595 43.2589 471.833 40.5489 473.434 41.678" fill="#FFA982"/>
<path d="M464.731 55.4937C464.803 55.0501 464.858 54.671 464.877 54.3968C464.967 53.0822 464.759 50.4448 464.587 48.1785L472.074 46.9768C472.074 46.9768 470.707 52.8402 464.731 55.4937Z" fill="#343434"/>
<path d="M448.493 24.9752C448.493 24.9752 448.259 33.3227 448.188 35.8633C448.117 38.4038 447.561 40.9283 447.939 44.6947C448.318 48.4531 450.677 54.9375 457.695 55.0101C464.713 55.0908 471.528 49.4693 472.728 45.5093C473.93 41.5493 473.493 39.8394 473.493 39.8394C473.493 39.8394 475.67 39.9039 476.598 37.0246C477.527 34.1454 478.486 30.3547 475.949 30.1612C473.413 29.9676 473.005 31.3548 472.404 31.2177C471.804 31.0806 468.843 24.4591 465.594 23.7654C462.345 23.0718 450.172 21.2733 448.493 24.9752" fill="#FFA982"/>
<path d="M462.375 33.0806C462.303 33.0806 462.231 33.0644 462.162 33.0321C462.138 33.0241 459.772 31.9594 458.161 31.7659C456.751 31.6046 456.018 32.3385 455.987 32.3708C455.791 32.5805 455.465 32.5886 455.26 32.395C455.054 32.1934 455.042 31.8788 455.235 31.6691C455.279 31.6208 456.332 30.5158 458.282 30.7416C460.053 30.9513 462.486 32.0482 462.589 32.0966C462.848 32.2095 462.963 32.5159 462.845 32.774C462.759 32.9676 462.572 33.0806 462.375 33.0806" fill="#343434"/>
<path d="M464.019 39.5812C463.996 40.4361 462.668 41.0893 461.053 41.0409C459.44 41.0006 458.15 40.2667 458.174 39.4199C458.198 38.5649 459.526 37.9197 461.14 37.9601C462.754 38.0085 464.043 38.7343 464.019 39.5812Z" fill="#F2836D"/>
<path d="M450.434 39.8474C450.409 40.6942 449.61 41.3636 448.648 41.3395C447.686 41.3072 446.926 40.5974 446.95 39.7506C446.974 38.8957 447.773 38.2343 448.735 38.2585C449.698 38.2827 450.457 38.9925 450.434 39.8474" fill="#F2836D"/>
<path d="M460.94 35.6211C460.811 35.6211 460.681 35.5726 460.58 35.4759C460.516 35.4194 459.106 34.0887 457.752 35.0404C457.519 35.2098 457.197 35.1533 457.033 34.9194C456.868 34.6855 456.925 34.3629 457.158 34.2016C458.807 33.0321 460.59 34.0403 461.3 34.742C461.504 34.9355 461.508 35.2662 461.309 35.4678C461.208 35.5727 461.074 35.6211 460.94 35.6211" fill="#343434"/>
<path d="M458.188 34.2499C458.188 34.2499 458.003 34.2176 457.735 34.4676C457.467 34.7096 457.551 35.7823 458.241 36.2501C458.933 36.7259 459.477 36.2743 459.569 35.621C459.661 34.9596 459.331 34.0402 458.188 34.2499" fill="#343434"/>
<path d="M448.525 35.6453C448.419 35.6453 448.311 35.613 448.218 35.5404C447.989 35.3711 447.942 35.0484 448.111 34.8226C448.491 34.3064 448.984 34.008 449.54 33.9516C450.592 33.8467 451.497 34.6129 451.596 34.7016C451.81 34.8871 451.83 35.2178 451.642 35.4275C451.452 35.6372 451.127 35.6613 450.913 35.4758C450.733 35.3145 450.155 34.9274 449.643 34.9839C449.376 35.0081 449.146 35.1613 448.94 35.4355C448.839 35.5726 448.683 35.6453 448.525 35.6453" fill="#343434"/>
<path d="M448.928 34.6935C448.928 34.6935 448.759 34.7257 448.621 35.0321C448.483 35.3467 448.939 36.3065 449.695 36.5323C450.45 36.7581 450.75 36.1775 450.592 35.5403C450.433 34.9032 449.823 34.1531 448.928 34.6935" fill="#343434"/>
<path d="M474.142 29.4995C474.142 29.4995 472.595 34.508 470.477 35.1049C468.359 35.7098 467.832 28.072 467.428 26.6606C467.024 25.2411 465.594 23.7652 465.594 23.7652C465.594 23.7652 476.176 22.9022 474.142 29.4995Z" fill="#343434"/>
<path d="M452.771 44.9927C452.275 44.9927 451.799 44.8959 451.341 44.7024C450.574 44.3797 450.081 43.8877 449.877 43.2586C449.599 42.3876 449.87 41.3311 450.732 39.9116C451.749 38.2421 452.652 33.7578 451.731 32.7093C450.837 31.6931 448.528 32.7254 448.506 32.7335C448.248 32.8545 447.94 32.7416 447.82 32.4835C447.701 32.2254 447.814 31.919 448.072 31.798C448.195 31.7415 451.096 30.4269 452.507 32.0319C453.952 33.6772 452.626 38.7905 451.614 40.452C450.939 41.5569 450.685 42.3957 450.86 42.9442C450.97 43.2829 451.259 43.549 451.745 43.7507C453.383 44.4443 455.07 43.2103 455.623 42.807C455.853 42.6377 456.176 42.6861 456.345 42.92C456.514 43.1458 456.464 43.4684 456.234 43.6377C455.003 44.541 453.843 44.9927 452.771 44.9927" fill="#343434"/>
<path d="M444.006 21.5796C440.974 14.7564 446.765 5.31199 455.422 7.32024C457.664 7.84448 462.73 11.8206 462.73 11.8206C462.73 11.8206 468.333 11.0222 475.486 14.7886C479.73 17.0227 482.763 22.999 478.459 24.5637C474.156 26.1284 461.058 24.6605 459.571 25.0396C458.083 25.4187 446.923 28.1447 444.006 21.5796Z" fill="#343434"/>
<path d="M447.138 24.7654C447.056 24.7654 446.975 24.7493 446.893 24.7251C444.48 23.9185 441.658 21.015 441.648 15.45C441.639 10.2721 446.29 7.38479 446.488 7.26381C446.853 7.03799 447.33 7.15898 447.552 7.52192C447.775 7.88485 447.659 8.36072 447.295 8.58654C447.239 8.6188 443.19 11.1674 443.197 15.45C443.208 21.6845 446.954 23.112 447.381 23.2491C447.787 23.3862 448.007 23.8218 447.872 24.2331C447.764 24.5557 447.462 24.7654 447.138 24.7654" fill="#343434"/>
<path d="M453.438 305.819C454.327 312.459 455.226 319.005 456.125 325.422L503.014 317.96L502.051 294.253L453.438 305.819" fill="#343434"/>
<path d="M528.165 217.923L521.754 289.565L512.173 291.845L524.217 314.584L562.157 308.546L528.165 217.923Z" fill="#343434"/>
<path d="M450.979 46.5334C450.979 46.5334 454.998 48.5336 459.014 45.1462L450.979 46.5334Z" fill="white"/>
<path d="M484.649 55.7035C484.649 55.7035 488.197 107.136 490.841 119.137C493.485 131.138 503.247 151.002 503.247 151.002L532.865 148.099C535.429 147.841 537.751 149.615 538.188 152.156L538.972 156.704L510.907 163.745L555.726 304.448C555.726 304.448 477.681 311.381 450.848 319.292C450.848 319.292 443.27 237.633 441.76 221.574C435.916 159.439 439.601 105.329 441.02 96.9814C442.438 88.6339 448.497 69.6241 448.497 69.6241C448.497 69.6241 451.502 63.3413 456.359 61.1717L453.691 89.3113L473.885 86.6014L478.545 54.3485C478.545 54.3485 481.269 54.5663 484.649 55.7035" fill="#5EA2CD"/>
<path d="M368.546 139.582C368.37 139.582 368.197 139.493 368.101 139.332C367.956 139.082 368.038 138.767 368.283 138.622C378.976 132.315 396.762 94.2473 396.502 73.4551C396.234 52.0338 393.298 24.0635 393.268 23.7813C393.238 23.499 393.444 23.2409 393.727 23.2167C394.012 23.1844 394.265 23.3861 394.295 23.6764C394.324 23.9506 397.266 51.9693 397.534 73.439C397.657 83.3108 393.839 97.8202 387.32 112.265C381.216 125.782 373.95 136.477 368.808 139.509C368.726 139.558 368.635 139.582 368.546 139.582" fill="#343434"/>
<path d="M496.23 87.0209C496.23 87.0209 491.655 110.321 484.469 126.734C477.283 143.139 460.15 155.825 454.235 155.067C448.319 154.301 437.829 146.526 437.829 146.526C437.829 146.526 456.132 132.969 462.098 124.556C468.063 116.152 496.23 87.0209 496.23 87.0209Z" fill="#343434"/>
<path d="M266.926 46.1301C266.926 46.1301 269.774 107.136 267.943 127.476C266.113 147.817 263.062 151.47 259.198 151.882C255.334 152.285 242.115 151.882 242.115 151.882C242.115 151.882 228.035 148.422 228.261 135.816C228.489 123.202 235.2 113.443 235.2 113.443C235.2 113.443 228.854 102.256 233.451 89.6501C238.048 77.0361 249.505 61.7847 249.505 61.7847L266.926 46.1301" fill="#78C887"/>
<path d="M221.772 102.054C221.698 102.312 221.937 102.498 222.318 102.627C221.413 103.393 220.584 104.272 220.273 104.845C219.956 105.434 220.643 105.668 221.476 105.748C221.209 106.595 221.435 107.506 222.034 108.136C221.111 108.628 220.402 109.249 221.39 109.781C222.598 110.426 224.636 110.539 226.134 110.087C226.241 110.128 226.349 110.168 226.458 110.208C225.843 110.628 225.582 111.216 226.886 111.91C228.916 112.991 231.871 112.596 233.463 111.846C234.153 111.878 234.826 111.87 235.462 111.789C241.423 111.015 242.801 102.869 242.801 102.869C242.801 102.869 238.294 96.2716 232.823 94.9651C230.781 94.4731 228.543 96.1023 226.539 98.3283C224.406 99.53 221.946 101.433 221.772 102.054" fill="#78C887"/>
<path d="M429.016 103.724C429.76 108.45 439.992 141.372 454.998 151.002C475.13 137.678 489.378 107.684 493.96 95.5457C498.677 83.0526 497.35 65.3252 497.35 65.3252L429.016 103.724" fill="#EAE6E4"/>
<path d="M346.376 65.4866C343.859 63.4864 329.049 58.4456 327.695 60.8975C326.341 63.3493 335.781 63.067 335.203 64.6478C334.623 66.2367 316.044 62.9219 316.482 65.7044C316.847 68.0191 326.301 67.9465 325.823 69.1402C325.346 70.3258 315.232 66.4141 314.594 67.9546C313.956 69.5031 324.352 73.2615 324.25 73.6647C324.148 74.0599 314.533 71.3742 314.282 72.4872C314.032 73.6002 324.345 76.3586 324.372 77.1974C324.399 78.0281 316.788 75.1084 317.014 76.786C317.241 78.4636 331.187 81.2139 333.117 81.7946C336.906 82.9479 347.895 85.2787 351.12 81.7381C356.885 75.4069 349.802 68.2046 346.376 65.4866" fill="#FFA982"/>
<path d="M429.035 103.845C429.896 108.837 439.659 140.018 454.016 150.325C455.156 147.542 450.848 140.897 450.848 140.897L430.981 108.7L431.198 107.184L430.116 103.103L429.545 103.426C429.388 103.539 429.214 103.668 429.035 103.845Z" fill="#343434"/>
<path d="M226.347 121.032C226.075 121.056 225.992 121.346 226.011 121.75C224.965 121.177 223.849 120.725 223.2 120.645C222.539 120.564 222.57 121.282 222.794 122.088C221.909 122.145 221.137 122.693 220.768 123.476C219.981 122.79 219.139 122.354 219.004 123.467C218.838 124.83 219.474 126.774 220.433 128.008C220.434 128.121 220.437 128.234 220.438 128.347C219.825 127.928 219.185 127.895 219.009 129.363C218.737 131.646 220.174 134.259 221.452 135.469C221.668 136.13 221.921 136.751 222.227 137.315C225.106 142.59 233.086 143.469 235.749 141.179C238.11 139.138 237.714 134.339 236.954 128.766C236.67 126.685 234.346 125.185 231.544 124.121C229.654 122.572 226.984 120.967 226.347 121.032Z" fill="#605E39"/>
<path d="M431.199 107.184L416.792 116.298C416.792 116.298 345.901 63.6237 341.158 70.1968C336.415 76.7539 364.03 119.976 370.063 128.492C380.529 143.268 394.082 156.729 420.118 153.43C430.547 152.107 441.111 147.341 450.849 140.897C449.624 119.814 431.943 111.91 431.199 107.184Z" fill="#FFA982"/>
<path d="M330.615 50.0984C330.526 50.0984 330.436 50.0742 330.353 50.0258C330.108 49.8806 330.026 49.566 330.172 49.3241C335.519 40.2829 340.06 15.9985 340.106 15.7565C340.157 15.4743 340.424 15.2888 340.707 15.3452C340.988 15.3936 341.173 15.6679 341.121 15.9421C340.935 16.9503 336.5 40.6539 331.06 49.8483C330.964 50.0096 330.792 50.0984 330.615 50.0984Z" fill="#343434"/>
<path d="M425.762 126.161C425.554 126.161 425.359 126.032 425.28 125.831C423.729 121.822 416.567 116.773 416.496 116.725C416.263 116.556 416.205 116.233 416.368 116.007C416.533 115.765 416.854 115.709 417.088 115.878C417.392 116.088 424.579 121.161 426.243 125.46C426.346 125.726 426.213 126.024 425.948 126.129C425.887 126.153 425.824 126.161 425.762 126.161" fill="#343434"/>
<path d="M528.534 293.607C528.486 293.607 528.437 293.599 528.389 293.585C507.291 287.443 463.725 288.98 463.288 288.996C462.986 289.005 462.764 288.784 462.752 288.499C462.742 288.214 462.964 287.975 463.249 287.963C463.689 287.948 507.422 286.405 528.677 292.595C528.951 292.674 529.109 292.961 529.028 293.234C528.963 293.46 528.757 293.607 528.534 293.607" fill="white"/>
<path d="M521.753 286.827C521.701 286.827 521.647 286.818 521.593 286.801C495.285 278.211 458.971 259.569 458.607 259.382C458.354 259.252 458.254 258.94 458.385 258.687C458.515 258.434 458.826 258.334 459.079 258.464C459.443 258.651 495.684 277.255 521.914 285.82C522.185 285.908 522.332 286.199 522.244 286.471C522.173 286.688 521.971 286.827 521.753 286.827Z" fill="white"/>
</svg>
